<svg id="Layer_1" data-name="Layer 1" xmlns="http://www.w3.org/2000/svg" viewBox="0 0 346.94 134.66"><defs><style>.cls-1,.cls-2{fill-rule:evenodd;}.cls-2{fill:#fff;}</style></defs><path class="cls-1" d="M241.89,409" transform="translate(-279.96 -368.18)"/><path class="cls-1" d="M626.61,462.75c-.06-.33-.38-.63-.39-1a4.09,4.09,0,0,0-2.25-3.72c-.87-.47-1.9-.67-2.72-1.22a21.74,21.74,0,0,0-6.63-2.74,2.58,2.58,0,0,1-.56-.16c-2.36-1.17-4.67-2.44-7.07-3.51-2-.9-4.15-1.49-6.17-2.35-1.86-.8-4.05-.9-5.43-2.6l-.87.5a2.32,2.32,0,0,0-2.48-1.61,6.31,6.31,0,0,1-2.16-.41c-.34-.11-.59-.49-.91-.68a6.59,6.59,0,0,0-4.34-1.2.39.39,0,0,1-.32-.11c-1-1.41-2.58-2-4.07-2.68a7.65,7.65,0,0,1-4.44-6.23,9.61,9.61,0,0,0-.65-2.61,4,4,0,0,0-1.4-1.32,3.56,3.56,0,0,0-1.52-.75c-1.3-.16-2.62-.08-3.92-.22-1.58-.16-2.52,1-3.7,1.66-.23.13-.27.79-.23,1.18.08.81.38,1.61.42,2.42.14,2.76,2.23,5.41,4.84,5.34l.88,1.1a4.22,4.22,0,0,1-.44.84,8.68,8.68,0,0,1-1.4,1.5,48.93,48.93,0,0,0-4.49,3.1,3.32,3.32,0,0,1-2.13,1.16.81.81,0,0,0-.44.13c-1.34,1.16-2.67,2.33-4.12,3.6-.18-.41-.29-.65-.45-1l-.52.6-.37-.09c.24-1.89.57-3.78.71-5.68.15-2.11.18-4.23.16-6.34a2.21,2.21,0,0,0-.73-1.29,3.86,3.86,0,0,0-1.1-.59,5,5,0,0,1-1.11.42,1.39,1.39,0,0,0-1.31,1.53c0,.48-.47,1-.73,1.44-.45.82-1.62,1.19-1.47,2.4,0,.16-.29.35-.39.56-.42.88-1.47,1.37-1.27,2.64.26,1.66-1.08,2.62-2,3.73a1.12,1.12,0,0,1-.93.16,1.44,1.44,0,0,0-2,1,1.55,1.55,0,0,1-.42.7c-.7.54-1.44,1-2.16,1.53-.2-.13-.94-.38-1-.71a11,11,0,0,1,.05-3.67c.38-1.55,1.45-3,1.63-4.54a4.39,4.39,0,0,1,1.64-3c.08-1.2.14-2.14.2-3.15-.6-.51-1.34-1.09-2-1.71s-1.45-.49-1.81.53a1.11,1.11,0,0,1-.77.67c-1.09,0-1.3.85-1.51,1.59-.44,1.56-.73,3.16-1.16,4.72-.13.47-.68.83-.79,1.3-.44,2-.8,4-1.2,6.09-1-.34-1.46.1-1.74.92,0,.15-.13.38-.23.4-1.58.39-2.23,2.65-4.27,2.12-.13,0-.36.25-.53.41a10.78,10.78,0,0,1-2.34,2.07,2.15,2.15,0,0,1-2-.8,4.13,4.13,0,0,1,.09-2.66c.33-1,1.21-1.84,1.49-2.85a4.62,4.62,0,0,1,1.46-2.27,7.49,7.49,0,0,0,1.5-1.69,7.84,7.84,0,0,0,.9-2.52c.18-1.09.52-2.43.08-3.31a4.49,4.49,0,0,0-3.33-2.46.72.72,0,0,0-.46.19,14.26,14.26,0,0,0-2.1,1.67c-.65.73-1.66,1.33-1.39,2.61a3.4,3.4,0,0,1,0,1.42,18.63,18.63,0,0,1-.63,2.05,5.53,5.53,0,0,1-.28.9,19.6,19.6,0,0,1-1.57,2.89A17.54,17.54,0,0,1,517,451.4a1.89,1.89,0,0,1-1,.51c-1.85.17-3.71.26-5.58.38a2.18,2.18,0,0,1,1.16-3,2.85,2.85,0,0,0,1.27-1.06c.5-1,.15-2.33,1.5-3a9.18,9.18,0,0,0,1.89-1.76,4.6,4.6,0,0,0,.89-.87c.61-1,1.12-2.12,2.53-2.26.16,0,.3-.26.44-.4.69-.74,1.24-1.74,2.08-2.17,1.29-.65,1.26-1.77,1.28-2.77a1.67,1.67,0,0,0-1.59-1.87c-2,0-3.85-.79-5.86-.14a8.17,8.17,0,0,1-3.08,0c-1-.09-2-.36-3-.5-1.42-.2-3,0-4.21-.59s-1.59-.15-2,.62a1.93,1.93,0,0,1-2.23,1.07c-2-.67-2.93.55-4.12,1.84a26.34,26.34,0,0,1-1-3.95,3.36,3.36,0,0,0-2.36-3,1,1,0,0,0-.54.1c-.42.18-.83.39-1.24.6a7.31,7.31,0,0,0-1.23.68,35.1,35.1,0,0,0-2.93,2.5,2.81,2.81,0,0,0-1,1.65c0,1.78-1.31,3-1.5,4.43l-1.11-.2c-.23-.45-.38-1.19-.83-1.5A14,14,0,0,1,479.9,433c.83-.45,1.67-.83,2.42-1.33.5-.34.83-.92,1.32-1.27a18.3,18.3,0,0,0,4.7-4.75,12.72,12.72,0,0,1,1.22-1.94c.83-.86,1.89-1.51,2.69-2.39A12.48,12.48,0,0,0,493.6,419c.87-1.49,1.78-3,2.63-4.46a10.89,10.89,0,0,1,1.26-2.48,6.18,6.18,0,0,0,1.42-3.74c.34-2.17.19-4.42.39-6.62.13-1.51-1.26-2.08-1.71-3.21,0-.08-.28-.08-.43-.09-1.07-.09-2.14-.23-3.2-.23a4.88,4.88,0,0,0-2.45.34c-1,.67-1.83,1.62-3.12,1.82-.14,0-.26.18-.38.28-1.37,1.17-2.67,2.45-4.13,3.49-.72.51-1.36,1.64-2.69.94.39-1.39.45-3.07,1.28-4.15a6.73,6.73,0,0,0,.95-2.62,4.06,4.06,0,0,1,.27-.6c.54-1.06,1.11-2.11,1.62-3.18.11-.23,0-.56,0-.83s0-.67.21-.78c1.78-1.12,1.32-3.41,2.6-4.85.72-.81.85-2.14,1.26-3.22a.52.52,0,0,1,.27-.31c1.38-.62,1.85-2,2.26-3.2A8.8,8.8,0,0,1,494,377.6c1-1,1-2.81,2.63-3.31.25-.08.37-.75.46-1.16.18-.84.25-1.71.48-2.54s.71-1.53-.45-2c-1.43-.62-2.31-.48-3,.56-.47.7-.91,1.75-1.57,1.94-2.08.6-1.66,3.08-3.27,3.93-.07,0,0,.23-.08.34-.84,1.81-1.69,3.63-2.55,5.44-.05.1-.19.14-.28.22-.83.73-1.7,1.42-2.45,2.22a4.34,4.34,0,0,0-.69,1.47c-.18.46-.23,1.26-.51,1.34-1.13.34-.93,1.23-1.16,1.91a8.33,8.33,0,0,0-1.83,1.61c-.42.51-.57,1.48-1.06,1.66a2.81,2.81,0,0,0-2,2.32.53.53,0,0,1-.29.36c-1.82.67-1.73,2.92-3.37,3.89-1.13.68-1.81,2.15-2.64,3.31-.61.85-1.13,1.77-1.71,2.64-.35.55-.66,1.39-1.14,1.52-.94.25-1,1-1.34,1.58a11.86,11.86,0,0,1-.66,1.39c-1.14,1.52-2.43,2.94-3.48,4.53a2.12,2.12,0,0,1-2.05,1.2c-.18.71-.14,1.62-.56,2-1.22,1.11-2.55,2.13-3.17,3.69a4.7,4.7,0,0,1-1.44,2.27,4.56,4.56,0,0,0-.89.73c-1,1.32-2.07,2.66-3.08,4s-1.83,2.53-2.83,3.72-2,2.25-3.05,3.36-1.07,2.75-2.79,3.08c-.15,0-.21.49-.33.74a3.25,3.25,0,0,1-.33.61c-.51.64-1.07,1.25-1.55,1.92a35.19,35.19,0,0,1-2.23,3.25c-1.15,1.29-2.91,2.12-3,4.17,0,0-.12.1-.19.14l-1.22-.29c0-.73,0-1.41,0-2.08a4.35,4.35,0,0,1,.16-1.59,12.78,12.78,0,0,1,1.26-1.87l.32.16c.13-.81,0-1.72.42-2.25,1-1.34,1.36-3,2-4.43.36-.78.37-1.71,1.23-2.25a1.19,1.19,0,0,0,.4-.93,4.09,4.09,0,0,1,1.12-2.77,11.15,11.15,0,0,0,.94-2.23,9.13,9.13,0,0,1,.79-1.48,12.41,12.41,0,0,0,1.19-1.59,23.7,23.7,0,0,0,1.83-5,7.46,7.46,0,0,1,2.43-4.27,3.76,3.76,0,0,0,.68-1.39c.2-.57.15-1.32.52-1.71,1.44-1.53,3-2.95,3.65-5a2.84,2.84,0,0,1,.63-.86c.44-.51.89-1,1.35-1.52.2-.22.44-.42.61-.59a3.64,3.64,0,0,1,.28-1.28c.67-1,1.47-1.85,2.2-2.78a8.86,8.86,0,0,0,1.95-2.91,17,17,0,0,1,2-3.46,5.08,5.08,0,0,0,.74-1.42,2.19,2.19,0,0,1,.71-1.54,3.58,3.58,0,0,0,1.44-2.49,3.17,3.17,0,0,1,.53-1.38c.42-.71,1-1.32,1.35-2,.61-1.29,1-2.68,1.66-4,.73-1.52,1.64-3,1.31-4.79a6,6,0,0,1,0-2c.2-1.14-.53-1.64-1.27-2.21a3.34,3.34,0,0,0-3.71-.41,3,3,0,0,1-1,.07c-.83.06-1.72,0-2,1.06a20.08,20.08,0,0,0-.86,3.14c-.13,1.25-.08,2.49-1.15,3.4a.5.5,0,0,0-.12.42c.38,1.21-.68,1.63-1.24,2.31-.17.2-.46.34-.56.57-.86,2-1.69,4-2.54,6-.26.61-.24,1.33-1.14,1.64a2,2,0,0,0-1.11,1.47,4.28,4.28,0,0,1-1.25,3.43c-.24.27-.09.85-.23,1.25a8.68,8.68,0,0,1-.67,1.37,27.27,27.27,0,0,0-2.33,4.52,6.52,6.52,0,0,1-1.53,2.93,2.9,2.9,0,0,0-.85,3.39,2.86,2.86,0,0,0-1.58,2.08,17.55,17.55,0,0,1-1,2.93c0,.06-.13.09-.17.14-.49.65-1.32,1.26-1.4,2-.29,2.61-2,4.23-3.76,5.79-.73.64-1.27,1.19-1.07,1.83-.68.77-1.2,1.31-1.67,1.9s-.6,1.29-1.07,1.47c-1.65.62-2.2,2.41-3.65,3.21-.42.23-.95.63-1,1-.46,2-3,2-3.5,3.88,0,0-.16,0-.22.05-.8.59-1.64,1.13-2.39,1.78-.94.8-1.56,2-3.06,2.08-.32,0-.87.73-.85,1.11,0,.8-.35,1.05-1,1.26a5.05,5.05,0,0,0-2.45,2.21,25.42,25.42,0,0,1-2.25,2.14c-.72.78-1.81.42-2.7,1.31-1.43,1.43-3.52,2.23-5.42,3.13-.62.3-1.49,0-2.24.1-1.13.1-2.24.27-3.36.41-.33-.07-1-.32-1.09-.7a16.6,16.6,0,0,1-.21-3.31c0-.65.49-1.05.94-1.52a15.12,15.12,0,0,0,1.54-2.4A18.43,18.43,0,0,1,404,438.2a57.35,57.35,0,0,1,4.79-3.76,49.78,49.78,0,0,0,4.27-3.54c.94-.85,1.75-1.86,2.65-2.76,1.57-1.54,3.16-3.06,4.73-4.6,1.11-1.08,2.21-2.18,3.3-3.28.71-.71.53-3-.32-3.47a2.76,2.76,0,0,0-1.21-.32,11.6,11.6,0,0,0-2.5,0c-.85.14-1.65.63-2.5.76-1.16.18-2.33.17-2.46,1.76,0,.13-.29.23-.42.37-.53.51-1,1.05-1.57,1.55s-1.16,1.07-1.78,1.55c-1.27,1-2.65,1.8-3.81,2.88a24.83,24.83,0,0,0-2.42,3,9.8,9.8,0,0,0-1.62,2.09c-.37.95-.77,1.69-1.81,2a.71.71,0,0,0-.37.58c0,1.17-.88,1.71-1.6,2.42a17.4,17.4,0,0,0-1.77,2.37c-.86.83-1.87,1.67-3.28,1.26,0,0-.06-.06-.07-.09-.42-2.49,1.79-4,2.24-6.19,0,0,.16,0,.21-.09a16.41,16.41,0,0,0,1.78-1.65c.72-.89,1.34-1.87,2-2.83.78-1.15,1.55-2.31,2.32-3.48.57-.85.62-2.19-.13-2.37a5,5,0,0,0-3.52.58,19.33,19.33,0,0,0-3.33,3.37,5.75,5.75,0,0,0-2,3.65,3.8,3.8,0,0,0-1.95,2.54c0,.26,0,.6-.2.77-.75.78-1.6,1.46-2.31,2.27-1,1.12-1.82,2.32-2.68,3.44l-3.79.2c-.08.27-.15.52-.23.78l-.31-.07c.27-.77-.37-1.53.53-2.39a15.09,15.09,0,0,0,2.21-3.28c1.14-1.9,2.22-3.84,3.36-5.74a5.58,5.58,0,0,1,.9-.92,10.12,10.12,0,0,0,.89-1c.2-.27.23-.71.48-.89a13.16,13.16,0,0,0,4.12-5.44c.55-1.23-.57-1.72-1.17-2.4a1,1,0,0,0-.93-.12,24.49,24.49,0,0,0-2.59,2.5c-.67.78-1.15,1.72-1.78,2.55a6.51,6.51,0,0,1-1,.81,6.49,6.49,0,0,0-1.14,1c-.73,1-1.34,2-2.09,2.95-1.45,1.83-3,3.62-4.44,5.42a10,10,0,0,1-1.12,1.29c-.88.75-1.91,1.34-2.71,2.15-1.15,1.16-2.18,1.38-3.52.51a6.69,6.69,0,0,0,1.54-1.22,4.87,4.87,0,0,0,1.05-2.36c0-1.12.85-1.4,1.36-2.06a44.19,44.19,0,0,0,2.8-4.82c.55-.94,1.17-1.84,1.65-2.59a16.83,16.83,0,0,1,1-1.8,4.59,4.59,0,0,0,.34-3.36,1.14,1.14,0,0,0-.65-.44c-1.22-.26-2.85.32-3.05,1.51-.35,2-2.55,2.66-2.84,4.65,0,.31-.71.89-.79,1.54,0,.07-.2.11-.27.19l-1.7,2.15c-.11.15-.22.42-.34.42-1.14,0-1.51.69-1.66,1.71,0,.33-.43.61-.66.91-.29.13-.3.41-.39.66-.3.85-.65,1.68-.95,2.53a5.25,5.25,0,0,0-.16,1c-.93-.24-1.86,1.11-1.81,2-.75.81-1.3,1.36-1.8,2-1.16,1.42-1.78,3.32-3.67,4.08a.61.61,0,0,0-.33.43,1.89,1.89,0,0,1-1.6,1.69c-.34.72-.45,1.46-.83,1.64a15.94,15.94,0,0,1-2.61.72,4,4,0,0,0-1,.52c-.43.28-.8.77-1.25.87-1.35.28-2.73.39-4.09.6a1.45,1.45,0,0,0-.85.38c-.69.82-1.51.55-2.23.48-.64-2.17.17-4.07.65-6a3.37,3.37,0,0,1,2.31-2.37c1.19-.31,2.44-.6,3.07-1.81,1.07.18,2.05.52,3-.51.41-.46,1.26-.53,1.9-.78a4.11,4.11,0,0,0,.61-.25,9.1,9.1,0,0,1,1-.65c.35-.15.81-.11,1.13-.3.82-.51,1.58-1.52,2.4-1.55,1.5-.06,1.68-1,1.92-2.19l.52.57c.76-.75,1.56-1.46,2.26-2.26.45-.52,1.43-.81,1.81-.42.1-.84.2-1.69.32-2.68l.57.45c.12-.56.13-1.55.37-1.61,1-.25.68-.74.54-1.37a2.17,2.17,0,0,1,.08-1.5c1.32-1.77,1-3.79,1.12-5.76,0-.38.37-.73.41-1.11.22-2,.41-4.06.59-6.09,0-.1-.09-.22-.16-.32a4.83,4.83,0,0,0-4.47-1.52,8.42,8.42,0,0,0-3.61,2.6,27.72,27.72,0,0,0-2,3c-.76,1.16-2.24,1.1-3.2,1.91l-.18.15c-1.43,1.46-2.41,3.27-3.93,4.67-.81.75-1,2.14-1.85,2.87a8.81,8.81,0,0,0-3,4.12c0,.13-.16.24-.24.36-.88,1.35-1.73,2.72-2.65,4.05a15.42,15.42,0,0,1-1.43,1.6s-.25-.12-.38-.18a4.46,4.46,0,0,1-4,4.35c-.85,0-1.85-.34-2.44.7a3.7,3.7,0,0,1-.15-3.57c.74-1.5,1.86-2.84,1.89-4.64a.47.47,0,0,1,.09-.32,5.6,5.6,0,0,0,1.86-3.73,1.66,1.66,0,0,1,.51-.93c1.55-1.41,1.46-3.62,2.57-5.24.2-.28.38-.57.57-.86l.31.09c-.1-.37-.19-.74-.21-.79a10.7,10.7,0,0,0,1.2-1.66c.22-.48.09-1.14.34-1.6.47-.88,1-1.72,1.48-2.59l-4.42-2.12a11.52,11.52,0,0,1-.55,2.09,13.27,13.27,0,0,1-2.15,4.12,4,4,0,0,0-.92,2.16,25.07,25.07,0,0,1-1.36,3.68c0,.1-.26.12-.36.21a4.85,4.85,0,0,0-1.54,2.8,7.87,7.87,0,0,1-.58,1.8c-.42,1-.94,1.89-1.36,2.86s-.72,1.94-1.15,2.88a47.67,47.67,0,0,0-2.51,5.26,2.74,2.74,0,0,1-2.74,2.1,8.41,8.41,0,0,0-1.33.4c-1,.27-1.93.51-2.89.78-.63.18-1.26.39-1.88.59a4.54,4.54,0,0,1-1.07.37,7.29,7.29,0,0,0-4.73,1.52c-1.56,1.44-3.54,1.86-5.4,2.41s-3.3,1.86-4.95,2.79c-.86.48-1.3,1.67-2.62,1.38-.27-.06-.65.39-1,.59-1.22.76-2.44,1.5-3.66,2.27a38.85,38.85,0,0,0-4.32,2.79c-1.79,1.49-3.39,3.21-5,4.84-.16.15-.2.42-.31.62a4.87,4.87,0,0,1-.8,1.35c-1.56,1.42-3.05,2.86-3.66,5a.75.75,0,0,1-.42.36,2.21,2.21,0,0,0-1.4,2.26,2.52,2.52,0,0,1-.45,1.18c-1.07,1.58-2.34,3.05-2.43,5.12,0,.23-.39.43-.55.68a4.29,4.29,0,0,0-.59,1c-.68,2.1.37,4.46-1,6.47.53,2.49-.42,5,.78,7.59.95,2,2.4,3.55,3.57,5.34.94,1.46,2.66,1.18,4,1.47a18.78,18.78,0,0,0,7.94.22c.76-.16,1.85.3,2.33-.09,1.32-1.08,3.33-.77,4.35-2.34.19-.29.66-.4,1-.59s.78-.21.9-.46c.66-1.32,2.13-1.83,2.83-3.3.86-1.79,2.68-3.1,4-4.71a42.55,42.55,0,0,0,3.65-5,95.31,95.31,0,0,1,5.18-8.17c.18-.24.46-.5.48-.76.07-1.54,1.51-2.18,2.34-3.75l-1.15-.27c1-.86,1.76-1.46,2.46-2.11.14-.13.12-.43.18-.66.15-.55.15-1.28.5-1.63a5.66,5.66,0,0,0,1.95-4.57c.61-.75,1.1-1.28,1.5-1.87a21.94,21.94,0,0,0,1.53-2.54c.29-.59.33-1.29.6-1.89.49-1.09,1.14-2.12,1.59-3.23.7-1.73,1.3-3.52,1.94-5.28a.58.58,0,0,1,.1-.21l2.24-3.15c.3-.06.66-.16,1-.22s1-.18,1.54-.26,1.54.37,1.91-.66a.52.52,0,0,1,.47-.15.67.67,0,0,1,.23.49c0,2.08-.1,4.16-.12,6.23,0,1.44.12,2.85,1.52,3.7a8.7,8.7,0,0,1,1.46.75c1.56,1.46,3.46.75,4.78.17a50,50,0,0,0,7.35-4.54c1.27-.85,2.29-2.1,3.61-2.81a3.41,3.41,0,0,0,1.88-1.81c.08-.2.95-.3,1.31-.14a4.92,4.92,0,0,1,1.48,1.18c.54.58,3.12,1,3.51.36a7.48,7.48,0,0,1,2.67-2.21,15.26,15.26,0,0,0,3.41-2.82c.61-.73,2.2-.83,1.57-2.44.62,1.45,1.13,2.77,1.74,4a3.23,3.23,0,0,0,3.24,1.38c.89-.35,1.65-1,2.51-1.42s1.65-.64,2.48-1c.24-.09.6-.14.7-.33.64-1.15,1.22-1.21,2.24-.25a4.91,4.91,0,0,0,1.63,1.21,14.76,14.76,0,0,0,2.7.36c-.12.25-.32.46-.29.62.08.46.51,1,.35,1.32a3.05,3.05,0,0,0,.09,2.36,7.3,7.3,0,0,0,.87,2.49c1.14,1.59,2.24,3.39,4.68,3.08a.78.78,0,0,1,.57.15c.76.66,1.57.35,2.34.09,1.12-.38,2.22-.82,3.31-1.27.68-.28.74-1.34,1.8-1.3.76,0,1.71-.09,2-1.16,0-.11.47-.14.73-.18s.52.05.66-.07a16.62,16.62,0,0,1,4-2.88.44.44,0,0,0,.16-.17c1-1.8,2.93-2.69,4.27-4.17.62-.68,2-.65,2.06-2,0-.09.35-.24.51-.22,1.11.17,1.64-.76,2.17-1.34a13.63,13.63,0,0,1,4.77-3.71c.64-.26,1.06-1.1,1.53-1.71a21,21,0,0,1,1.48-2c.58-.59,1.5-.87,1.59-1.9,0-.11.28-.19.68-.45-.07,1,.07,2.34-.22,2.44-1.49.53-.65,2.16-1.68,3-.8.65-.87,2.14-1.36,3.22a18.79,18.79,0,0,0-1.54,3,15.07,15.07,0,0,1-1.28,3.55c-.64,1.21-1.09,2.52-1.66,3.77a19.76,19.76,0,0,0-1.19,2.51,14.35,14.35,0,0,1-.86,2.65,46.07,46.07,0,0,0-2.26,6.39c-.2.61-.35,1.24-.49,1.87-.23,1-.13,2.3-.73,2.91-1,1-1,2.26-1.13,3.38a2.85,2.85,0,0,0,1.15,2.4c1.62.69,3.28-.29,4.3-1.83a10.74,10.74,0,0,1,2.61-3.05,4.12,4.12,0,0,0,1.86-3.81c0-.33,0-.86.21-1,1.65-.92,2.21-2.64,3.16-4.07.38-.57.78-1.11,1.17-1.68s.8-1.16,1.17-1.76.56-1.11.9-1.64,1-.94,1.06-1.44a3.17,3.17,0,0,1,1.21-2.39c1-.82,1.25-2.21,2.57-2.85a3.7,3.7,0,0,0,1.88-2.17c.31-1.48,1.29-1.66,2.24-1.81,0-.55-.1-1.09.11-1.39,1.35-1.91,2.76-3.78,4.2-5.62.44-.57,1.32-.91,1.52-1.51a4,4,0,0,1,1-1.37c.9-1.05,2.45-1.65,2.55-3.32,0-.15.21-.29.32-.43.79-1,1.59-2,2.37-2.95.21-.26.28-.66.52-.86a5.07,5.07,0,0,0,1.72-2.45,8.09,8.09,0,0,1,1.48-2.13c.79-1,1.62-2,2.43-3.05a15.12,15.12,0,0,1,1.12-1.39c.57-.57,1.46-1,1.74-1.62a15,15,0,0,1,2.74-3.75c.58-.68,1.71-1,1.58-2.25,0-.09.41-.23.83-.46,0-.35.05-1,.09-1.8,1.79.4,2-.78,2-2.18a5.64,5.64,0,0,1,.15-.81h1.45c.19-.81.37-1.55.54-2.28.35.25.48.49.47.72-.08,1.2.18,2.38-.79,3.51-.71.85-.84,2.19-1.27,3.29-.09.23-.34.4-.51.6-.75.87-1.67,1.64-1.52,3a2.35,2.35,0,0,1-.36,1.44c-.82,1.21-1.74,2.34-2.61,3.5-.66.87-1.14,2-2,2.53-1.51.91-1.85,2.58-2.94,3.75-.65.7-.78,1.9-1.15,2.87a1.32,1.32,0,0,1-.26.36c-.53.57-1.07,1.12-1.6,1.69a17.84,17.84,0,0,1-2.27,2.4c-1.28.94-1.7,1.82-1.13,3.2s0,2.21-1.35,2-1,1.31-1.82,1.69c-.2.1-.08,1.08,0,1.62a5.84,5.84,0,0,0,.67,1.22,1.25,1.25,0,0,0,2.22.22,1.2,1.2,0,0,1,.59-.39c2.47-.48,5.09.21,7.49-1a6.51,6.51,0,0,1,2.1-.3c2.35-.28,4.7-.53,7.05-.82.74-.1,1.47-.32,2.2-.48,0-.12,0-.24,0-.35l4,3.07c-.9.86-.87.93-.8,2.61,0,.53-.13,1.41-.46,1.56-1.52.7-2.12,2.27-3.34,3.21-.26.2-.59.48-.87.47a7.78,7.78,0,0,0-3,.65c-1.36.5-2.84.69-4.25,1.08a2.2,2.2,0,0,0-.89.64c-.8.88-1.6,1.69-3,1.51a1.2,1.2,0,0,0-.92.45,8.73,8.73,0,0,1-3.53,2.33,8.9,8.9,0,0,0-1.13.71c-.67-.15-1.91-.19-2,0-.32,1.43-1.44,1.25-2.39,1.44s-1.64.29-2.86.5c-.88,1-2.15,1.27-4.16,1.33-2.17.07-3.2.45-3.28,2.75,0,.24-.17.51-.09.7.25.61.52,1.66.87,1.7a9.66,9.66,0,0,0,4.09-.21c2.79-1,5.49-.59,8.26-.14.81.13,2.06.2,2.42-.26a4.63,4.63,0,0,1,2.93-1.51,15.81,15.81,0,0,0,2.45-.93c.17-.07.27-.3.43-.4a13.09,13.09,0,0,1,1.91-1.1c1.16-.48,2.38-.79,3.53-1.27.42-.18.69-.86,1.09-.93a20.71,20.71,0,0,1,2.92-.18c.41,1.29-.27,2.44,1.08,3.4s1.67,1.51,3,.5,3-1.24,4.42-1.94c1.23-.59,2.27-1,2.19-2.26.76-.6,1.35-1,1.9-1.52a17.48,17.48,0,0,1,1.32-1.27c.87-.61,1.77-1.14,1.58-2.44,0-.15.28-.35.44-.52l.32.08c0,1.07-.08,2.15,0,3.21.17,1.79-.57,3.83,1.13,5.26.7.59,1,1.76,2.21,1.64,1-.1,2-.08,3-.14a.9.9,0,0,0,.52-.22c1.09-1,2.24-1.91,3.22-3a6.32,6.32,0,0,0,1.18-2.18c.25-.75.06-1.6,1.05-2.08a1.49,1.49,0,0,0,.89-1.94c-.06-.15.26-.44.4-.67.11.22.32.43.33.65,0,1.08-.08,2.16,0,3.23a3.7,3.7,0,0,0,.71,1.63,10.21,10.21,0,0,0,4.18,3.29c.28.12.89.07,1-.12,1.07-1.55,2.81-2,4.37-2.63a23.23,23.23,0,0,1,3.54-.9c-.11,1.87,1.14,3.32,2.23,4.8a2.59,2.59,0,0,0,1.74.88c2,.34,3.37-1.13,5.12-1.46.64-.11,1.12-.95,1.77-1.14,1-.27,1.33-.93,1.87-1.63a6.91,6.91,0,0,1,2.34-1.68,9.28,9.28,0,0,1,2.08-.57c1.12,1.16,2.53,2.27,4.6,1.93a3,3,0,0,1,1.42,0,1.13,1.13,0,0,0,1.3-.22,12.79,12.79,0,0,1,2-1.73,14,14,0,0,0,5.58-5.13c.1.35.17.61.33,1.21.17-.62.25-.88.33-1.15a.89.89,0,0,1,.24.64c.19,2-.07,4.2,1.92,5.59a5.63,5.63,0,0,0,1.42.68c2,.63,3.27-1.17,5-1.63a4.7,4.7,0,0,0,2-1.19,18,18,0,0,1,2.46-2.56,58,58,0,0,0,4.48-3.68c.36-.3.67-.65,1-.95a8.74,8.74,0,0,0,1.32-1.08c.33-.44.52-.83,1.19-.93,1-.15,2-.62,1.91-1.87.49,0,1-.15,1.28,0,.91.58,1.75,1.28,2.62,1.93a3.86,3.86,0,0,0,.92.67c2.34.85,4.7,1.66,7,2.5a3.1,3.1,0,0,1,.64.4c1,.68,1.91,1.69,3,2,1.51.4,3.08.46,4.49,1.27.44.26,1.11.1,1.6.3,1.16.46,2.25,1.11,3.43,1.53,1.5.53,3,.91,4.58,1.36a.74.74,0,0,1,.33.13,5.87,5.87,0,0,0,3.27,1.51,2.24,2.24,0,0,1,1.32,1,1.87,1.87,0,0,0,1.82,1c.49,0,1.18,0,1.44.32a2.53,2.53,0,0,0,2.11.71,2.67,2.67,0,0,1,1.21.33c1.07.63,2.1,1.31,3.12,2a4,4,0,0,1,1.37,1.15,34,34,0,0,1,1.37,3.15c1.54-.16,2.78-.22,4-.44.58-.11,1.45-.38,1.58-.78A4.62,4.62,0,0,0,626.61,462.75ZM353.09,434.43a14,14,0,0,1,1.26-2.18c.23-.33.64-.54.88-.87a19.7,19.7,0,0,0,2.69-4c.81-2.13,2.66-3.18,4-4.72a20.53,20.53,0,0,0,1.29-1.77c.11-.16.2-.51.27-.5,1.46.13,1.35-1.18,1.93-1.91a5.19,5.19,0,0,1,3.59-2.3c.2,0,.37-.31.63-.55.48,1.55.69,2.93-.35,4.32a2.86,2.86,0,0,0-.32,1.85c.16,1.51-.77,2.62-1.24,3.9a6.22,6.22,0,0,1-.72,1.57,20.46,20.46,0,0,1-1.76,2.07c-.28.3-.68.5-1,.78a15.1,15.1,0,0,0-1.42,1.35c-.29.33-.43.78-.69,1.13s-.46.57-.72.6A3.15,3.15,0,0,0,358.8,435c0,.07-.12.17-.17.16-1.74-.25-3,1.3-4.71,1.17-.35,0-.93-.2-1-.41A2.41,2.41,0,0,1,353.09,434.43Zm-23.33,15.23c-1.06.6-.81,1.58-1.13,2.4-.41,1.06-1.06,2-1.52,3.05a20.52,20.52,0,0,1-1.39,3.4c-.81,1.16-.63,2.82-2,3.7-.34.22-.39.88-.6,1.33s-.34.68-.53,1-.6.63-.64,1c-.16,1.41-1.09,2.39-1.8,3.51-.46.71-.77,1.51-1.16,2.26a4.37,4.37,0,0,1-.92,1.51c-1.36,1-1.13,2.84-2.12,4-.62.74-1.15,1.56-1.72,2.35-.09.12-.29.24-.28.35.05,1-.94,1.44-1.17,2.21a10.08,10.08,0,0,1-2.15,3.35c-1.24,1.58-2.36,3.26-3.66,4.79s-2.65,2.69-3.91,4.09a13.79,13.79,0,0,0-1.31,2.08l-.2-.27-1.83,1.15a.54.54,0,0,1-.22.1c-2.13-.12-3.67,1.44-5.57,1.93-1,.26-2.05.6-3-.55-.47-.58-1.52-.66-2.17-1.15s-1.15-1.53-2.31-1.82c-.49-.13-.71-1.36-1.06-2.08a8.41,8.41,0,0,1-1.16-3.28c-.06-1.22-.68-2.4-.84-3.63a9.47,9.47,0,0,1,.29-2.5,7.82,7.82,0,0,1,.33-1.35,10.16,10.16,0,0,1,.7-1.4c.05-.1.27-.16.26-.22-.31-2.06,1.93-3.16,1.93-5.14,0-.42.59-.84.91-1.26.14-.19.44-.39.41-.55-.19-1,.6-1.61,1.13-2.17.82-.86,1.54-1.85,2.26-2.73,1.26-1.54,3.14-2.4,4.14-4s2.56-2.53,4.09-3.58a14,14,0,0,1,4-2c.53-.16.9-.86,1.34-1.31.17-.19.29-.54.48-.57,1.43-.25,2.32-1.64,3.51-1.93,1.71-.42,2.74-1.72,4.08-2.51a19.49,19.49,0,0,1,5-2c.55-.14,1-.62,1.56-.76,1.46-.37,2.94-.63,4.41-.93.16,0,.4,0,.46-.07,1.19-1.65,2.9-.58,4.21-.87l.59-1,.31.12C329.8,448.35,330.06,449.49,329.76,449.66Zm148.05-20.52a.84.84,0,0,1-.49.22A4,4,0,0,0,474,431a1.25,1.25,0,0,1-.61.3c-1.7.42-3.42.75-5.09,1.26-2.1.65-2.44.74-4.34.15l1.78-.25c.4-.7-1-1.55.37-2.1.88-2.37,2.95-3.74,4.62-5.44a16,16,0,0,0,3.53-5c.36-.88,1.34-1.51,2.05-2.24,1.12-1.17,2.22-2.31,3.24-3.6,1.31-1.66,2.28-3.89,4.58-4.73.46-.17.71-.87,1.05-1.33.11-.16.17-.43.32-.48,2.65-.89,4.35-3.4,7.1-4.12a15,15,0,0,0,2.19-.95,31.37,31.37,0,0,1-.07,5.27A10.78,10.78,0,0,1,492.9,412a4.36,4.36,0,0,0-1.13,2.1c0,.45-.79.78-1.12,1.23a5.18,5.18,0,0,0-.67,1.52c-.64.9-1.3,1.79-1.93,2.7s-1.19,2.23-2.5,2.91c-.94.48-1.51,1.63-2.32,2.41-.51.49-1.18.8-1.73,1.25s-1.29,1.19-2,1.76S478.4,428.72,477.81,429.14Zm28.64,10.21c-1.28,0-1.29,1.25-1.23,1.82.16,1.38-.61,2.28-1.27,3.2a15.84,15.84,0,0,0-2.1,3.34,14.44,14.44,0,0,1-3.33,4.47,9,9,0,0,0-1.08,1.89l-.43-.64-.34.74c-.14-.1-.25-.14-.25-.19q-.1-2-.18-3.9c0-.14,0-.36.1-.42,1-.71.67-1.82.83-2.79.12-.69-.11-1.55.82-1.94.13-.05.19-.34.24-.52a34.26,34.26,0,0,1,1.1-3.91,26.52,26.52,0,0,1,1.75-2.92,4.35,4.35,0,0,0,.34-1.08l1.21-.41c.12,1.36,1.05,1.7,2.42,1.7.56,0,1.13.59,1.67.95C506.75,438.76,506.55,439.35,506.45,439.35Zm3.54,4.57c-1.11.38-1.11.38-1.54,2.26,0-.92-.53-1.86.49-2.75.36-.31.15-1.25.22-1.91a4.38,4.38,0,0,1,.22-1.26c.36-.87.81-1.7,1.33-2.75,1.61-.31,1.17,1.59,1.79,2.14-.27.53-.49,1-.74,1.46-.35.67-.68,1.34-1.09,2-.06.1-.47,0-.79-.05Z" transform="translate(-279.96 -368.18)"/><path class="cls-2" d="M173.15,290.78" transform="translate(-279.96 -368.18)"/></svg>